<mxfile host="app.diagrams.net" agent="Mozilla/5.0 (Windows NT 10.0; Win64; x64; rv:132.0) Gecko/20100101 Firefox/132.0" version="24.8.4">
  <diagram name="EERD" id="dgBB3Ut48sXXji6rW2N3">
    <mxGraphModel dx="3240" dy="2275" grid="1" gridSize="10" guides="1" tooltips="1" connect="1" arrows="1" fold="1" page="1" pageScale="1" pageWidth="850" pageHeight="1100" math="0" shadow="0">
      <root>
        <mxCell id="0" />
        <mxCell id="1" parent="0" />
        <mxCell id="hHyLVONSQbWsYgpsv_cf-63" style="edgeStyle=orthogonalEdgeStyle;rounded=0;orthogonalLoop=1;jettySize=auto;html=1;exitX=0.75;exitY=0;exitDx=0;exitDy=0;entryX=0;entryY=0.5;entryDx=0;entryDy=0;endArrow=none;endFill=0;startArrow=ERmandOne;startFill=0;fontFamily=Carlito;fontSource=https%3A%2F%2Ffonts.googleapis.com%2Fcss%3Ffamily%3DCarlito;" edge="1" parent="1" source="1P8ZaYaiMlp0uqTCscuJ-2" target="hHyLVONSQbWsYgpsv_cf-59">
          <mxGeometry relative="1" as="geometry" />
        </mxCell>
        <mxCell id="hHyLVONSQbWsYgpsv_cf-95" style="edgeStyle=orthogonalEdgeStyle;rounded=0;orthogonalLoop=1;jettySize=auto;html=1;exitX=0.5;exitY=1;exitDx=0;exitDy=0;endArrow=none;endFill=0;startArrow=ERmandOne;startFill=0;" edge="1" parent="1" source="1P8ZaYaiMlp0uqTCscuJ-2" target="hHyLVONSQbWsYgpsv_cf-88">
          <mxGeometry relative="1" as="geometry" />
        </mxCell>
        <mxCell id="hHyLVONSQbWsYgpsv_cf-128" style="edgeStyle=orthogonalEdgeStyle;rounded=0;orthogonalLoop=1;jettySize=auto;html=1;exitX=0.5;exitY=0;exitDx=0;exitDy=0;endArrow=none;endFill=0;startArrow=ERmandOne;startFill=0;" edge="1" parent="1" source="1P8ZaYaiMlp0uqTCscuJ-2" target="hHyLVONSQbWsYgpsv_cf-126">
          <mxGeometry relative="1" as="geometry" />
        </mxCell>
        <mxCell id="1P8ZaYaiMlp0uqTCscuJ-2" value="&lt;div&gt;Patient&lt;/div&gt;" style="rounded=0;whiteSpace=wrap;html=1;flipH=1;flipV=0;fontFamily=Carlito;fontSource=https%3A%2F%2Ffonts.googleapis.com%2Fcss%3Ffamily%3DCarlito;" parent="1" vertex="1">
          <mxGeometry x="370" y="280" width="120" height="60" as="geometry" />
        </mxCell>
        <mxCell id="hHyLVONSQbWsYgpsv_cf-20" value="Admitted" style="ellipse;whiteSpace=wrap;html=1;fontStyle=0;fontFamily=Carlito;fontSource=https%3A%2F%2Ffonts.googleapis.com%2Fcss%3Ffamily%3DCarlito;" vertex="1" parent="1">
          <mxGeometry x="-10" y="560" width="120" height="50" as="geometry" />
        </mxCell>
        <mxCell id="hHyLVONSQbWsYgpsv_cf-22" value="Discharged" style="ellipse;whiteSpace=wrap;html=1;fontStyle=0;fontFamily=Carlito;fontSource=https%3A%2F%2Ffonts.googleapis.com%2Fcss%3Ffamily%3DCarlito;" vertex="1" parent="1">
          <mxGeometry x="-10" y="620" width="120" height="50" as="geometry" />
        </mxCell>
        <mxCell id="hHyLVONSQbWsYgpsv_cf-26" value="Male" style="ellipse;whiteSpace=wrap;html=1;fontStyle=0;fontFamily=Carlito;fontSource=https%3A%2F%2Ffonts.googleapis.com%2Fcss%3Ffamily%3DCarlito;" vertex="1" parent="1">
          <mxGeometry x="-10" y="250" width="120" height="50" as="geometry" />
        </mxCell>
        <mxCell id="hHyLVONSQbWsYgpsv_cf-27" value="Female" style="ellipse;whiteSpace=wrap;html=1;fontStyle=0;fontFamily=Carlito;fontSource=https%3A%2F%2Ffonts.googleapis.com%2Fcss%3Ffamily%3DCarlito;" vertex="1" parent="1">
          <mxGeometry x="-10" y="310" width="120" height="50" as="geometry" />
        </mxCell>
        <mxCell id="hHyLVONSQbWsYgpsv_cf-31" value="First Name" style="ellipse;whiteSpace=wrap;html=1;fontStyle=0;fontFamily=Carlito;fontSource=https%3A%2F%2Ffonts.googleapis.com%2Fcss%3Ffamily%3DCarlito;" vertex="1" parent="1">
          <mxGeometry x="-10" y="70" width="120" height="50" as="geometry" />
        </mxCell>
        <mxCell id="hHyLVONSQbWsYgpsv_cf-32" value="Surname" style="ellipse;whiteSpace=wrap;html=1;fontStyle=0;fontFamily=Carlito;fontSource=https%3A%2F%2Ffonts.googleapis.com%2Fcss%3Ffamily%3DCarlito;" vertex="1" parent="1">
          <mxGeometry x="-10" y="130" width="120" height="50" as="geometry" />
        </mxCell>
        <mxCell id="hHyLVONSQbWsYgpsv_cf-45" style="edgeStyle=orthogonalEdgeStyle;rounded=0;orthogonalLoop=1;jettySize=auto;html=1;exitX=1;exitY=0.5;exitDx=0;exitDy=0;entryX=0;entryY=0.5;entryDx=0;entryDy=0;endArrow=none;endFill=0;fontFamily=Carlito;fontSource=https%3A%2F%2Ffonts.googleapis.com%2Fcss%3Ffamily%3DCarlito;" edge="1" parent="1" source="hHyLVONSQbWsYgpsv_cf-19" target="1P8ZaYaiMlp0uqTCscuJ-2">
          <mxGeometry relative="1" as="geometry">
            <Array as="points">
              <mxPoint x="325" y="585" />
              <mxPoint x="325" y="310" />
            </Array>
          </mxGeometry>
        </mxCell>
        <mxCell id="hHyLVONSQbWsYgpsv_cf-54" style="edgeStyle=orthogonalEdgeStyle;rounded=0;orthogonalLoop=1;jettySize=auto;html=1;entryX=0;entryY=0.5;entryDx=0;entryDy=0;endArrow=none;endFill=0;fontFamily=Carlito;fontSource=https%3A%2F%2Ffonts.googleapis.com%2Fcss%3Ffamily%3DCarlito;" edge="1" parent="1" source="hHyLVONSQbWsYgpsv_cf-1" target="1P8ZaYaiMlp0uqTCscuJ-2">
          <mxGeometry relative="1" as="geometry" />
        </mxCell>
        <mxCell id="hHyLVONSQbWsYgpsv_cf-1" value="Name" style="ellipse;whiteSpace=wrap;html=1;fontStyle=0;fontFamily=Carlito;fontSource=https%3A%2F%2Ffonts.googleapis.com%2Fcss%3Ffamily%3DCarlito;" vertex="1" parent="1">
          <mxGeometry x="160" y="70" width="120" height="50" as="geometry" />
        </mxCell>
        <mxCell id="hHyLVONSQbWsYgpsv_cf-53" style="edgeStyle=orthogonalEdgeStyle;rounded=0;orthogonalLoop=1;jettySize=auto;html=1;entryX=0;entryY=0.5;entryDx=0;entryDy=0;endArrow=none;endFill=0;fontFamily=Carlito;fontSource=https%3A%2F%2Ffonts.googleapis.com%2Fcss%3Ffamily%3DCarlito;" edge="1" parent="1" source="hHyLVONSQbWsYgpsv_cf-2" target="1P8ZaYaiMlp0uqTCscuJ-2">
          <mxGeometry relative="1" as="geometry" />
        </mxCell>
        <mxCell id="hHyLVONSQbWsYgpsv_cf-2" value="&lt;div&gt;Age&lt;/div&gt;" style="ellipse;whiteSpace=wrap;html=1;fontStyle=0;fontFamily=Carlito;fontSource=https%3A%2F%2Ffonts.googleapis.com%2Fcss%3Ffamily%3DCarlito;" vertex="1" parent="1">
          <mxGeometry x="160" y="130" width="120" height="50" as="geometry" />
        </mxCell>
        <mxCell id="hHyLVONSQbWsYgpsv_cf-52" style="edgeStyle=orthogonalEdgeStyle;rounded=0;orthogonalLoop=1;jettySize=auto;html=1;entryX=0;entryY=0.5;entryDx=0;entryDy=0;endArrow=none;endFill=0;fontFamily=Carlito;fontSource=https%3A%2F%2Ffonts.googleapis.com%2Fcss%3Ffamily%3DCarlito;" edge="1" parent="1" source="hHyLVONSQbWsYgpsv_cf-3" target="1P8ZaYaiMlp0uqTCscuJ-2">
          <mxGeometry relative="1" as="geometry" />
        </mxCell>
        <mxCell id="hHyLVONSQbWsYgpsv_cf-3" value="Birth date" style="ellipse;whiteSpace=wrap;html=1;fontStyle=0;fontFamily=Carlito;fontSource=https%3A%2F%2Ffonts.googleapis.com%2Fcss%3Ffamily%3DCarlito;" vertex="1" parent="1">
          <mxGeometry x="160" y="190" width="120" height="50" as="geometry" />
        </mxCell>
        <mxCell id="hHyLVONSQbWsYgpsv_cf-51" style="edgeStyle=orthogonalEdgeStyle;rounded=0;orthogonalLoop=1;jettySize=auto;html=1;endArrow=none;endFill=0;fontFamily=Carlito;fontSource=https%3A%2F%2Ffonts.googleapis.com%2Fcss%3Ffamily%3DCarlito;" edge="1" parent="1" source="hHyLVONSQbWsYgpsv_cf-4" target="1P8ZaYaiMlp0uqTCscuJ-2">
          <mxGeometry relative="1" as="geometry" />
        </mxCell>
        <mxCell id="hHyLVONSQbWsYgpsv_cf-4" value="Sex" style="ellipse;whiteSpace=wrap;html=1;fontStyle=0;fontFamily=Carlito;fontSource=https%3A%2F%2Ffonts.googleapis.com%2Fcss%3Ffamily%3DCarlito;" vertex="1" parent="1">
          <mxGeometry x="160" y="250" width="120" height="50" as="geometry" />
        </mxCell>
        <mxCell id="hHyLVONSQbWsYgpsv_cf-50" style="edgeStyle=orthogonalEdgeStyle;rounded=0;orthogonalLoop=1;jettySize=auto;html=1;endArrow=none;endFill=0;fontFamily=Carlito;fontSource=https%3A%2F%2Ffonts.googleapis.com%2Fcss%3Ffamily%3DCarlito;" edge="1" parent="1" source="hHyLVONSQbWsYgpsv_cf-5" target="1P8ZaYaiMlp0uqTCscuJ-2">
          <mxGeometry relative="1" as="geometry" />
        </mxCell>
        <mxCell id="hHyLVONSQbWsYgpsv_cf-5" value="Height" style="ellipse;whiteSpace=wrap;html=1;fontStyle=0;fontFamily=Carlito;fontSource=https%3A%2F%2Ffonts.googleapis.com%2Fcss%3Ffamily%3DCarlito;" vertex="1" parent="1">
          <mxGeometry x="160" y="310" width="120" height="50" as="geometry" />
        </mxCell>
        <mxCell id="hHyLVONSQbWsYgpsv_cf-49" style="edgeStyle=orthogonalEdgeStyle;rounded=0;orthogonalLoop=1;jettySize=auto;html=1;exitX=1;exitY=0.5;exitDx=0;exitDy=0;entryX=0;entryY=0.5;entryDx=0;entryDy=0;endArrow=none;endFill=0;fontFamily=Carlito;fontSource=https%3A%2F%2Ffonts.googleapis.com%2Fcss%3Ffamily%3DCarlito;" edge="1" parent="1" source="hHyLVONSQbWsYgpsv_cf-6" target="1P8ZaYaiMlp0uqTCscuJ-2">
          <mxGeometry relative="1" as="geometry" />
        </mxCell>
        <mxCell id="hHyLVONSQbWsYgpsv_cf-6" value="Weight" style="ellipse;whiteSpace=wrap;html=1;fontStyle=0;fontFamily=Carlito;fontSource=https%3A%2F%2Ffonts.googleapis.com%2Fcss%3Ffamily%3DCarlito;" vertex="1" parent="1">
          <mxGeometry x="160" y="370" width="120" height="50" as="geometry" />
        </mxCell>
        <mxCell id="hHyLVONSQbWsYgpsv_cf-48" style="edgeStyle=orthogonalEdgeStyle;rounded=0;orthogonalLoop=1;jettySize=auto;html=1;exitX=1;exitY=0.5;exitDx=0;exitDy=0;entryX=0;entryY=0.5;entryDx=0;entryDy=0;endArrow=none;endFill=0;fontFamily=Carlito;fontSource=https%3A%2F%2Ffonts.googleapis.com%2Fcss%3Ffamily%3DCarlito;" edge="1" parent="1" source="hHyLVONSQbWsYgpsv_cf-7" target="1P8ZaYaiMlp0uqTCscuJ-2">
          <mxGeometry relative="1" as="geometry" />
        </mxCell>
        <mxCell id="hHyLVONSQbWsYgpsv_cf-7" value="&lt;div&gt;Religion&lt;/div&gt;" style="ellipse;whiteSpace=wrap;html=1;fontStyle=0;fontFamily=Carlito;fontSource=https%3A%2F%2Ffonts.googleapis.com%2Fcss%3Ffamily%3DCarlito;" vertex="1" parent="1">
          <mxGeometry x="160" y="430" width="120" height="50" as="geometry" />
        </mxCell>
        <mxCell id="hHyLVONSQbWsYgpsv_cf-38" style="edgeStyle=orthogonalEdgeStyle;rounded=0;orthogonalLoop=1;jettySize=auto;html=1;exitX=1;exitY=0.5;exitDx=0;exitDy=0;endArrow=none;endFill=0;curved=0;fontFamily=Carlito;fontSource=https%3A%2F%2Ffonts.googleapis.com%2Fcss%3Ffamily%3DCarlito;" edge="1" parent="1" source="hHyLVONSQbWsYgpsv_cf-20" target="hHyLVONSQbWsYgpsv_cf-19">
          <mxGeometry relative="1" as="geometry" />
        </mxCell>
        <mxCell id="hHyLVONSQbWsYgpsv_cf-39" style="edgeStyle=orthogonalEdgeStyle;rounded=0;orthogonalLoop=1;jettySize=auto;html=1;exitX=1;exitY=0.5;exitDx=0;exitDy=0;entryX=0;entryY=0.5;entryDx=0;entryDy=0;endArrow=none;endFill=0;curved=0;fontFamily=Carlito;fontSource=https%3A%2F%2Ffonts.googleapis.com%2Fcss%3Ffamily%3DCarlito;" edge="1" parent="1" source="hHyLVONSQbWsYgpsv_cf-22" target="hHyLVONSQbWsYgpsv_cf-19">
          <mxGeometry relative="1" as="geometry" />
        </mxCell>
        <mxCell id="hHyLVONSQbWsYgpsv_cf-36" style="edgeStyle=orthogonalEdgeStyle;rounded=0;orthogonalLoop=1;jettySize=auto;html=1;exitX=1;exitY=0.5;exitDx=0;exitDy=0;endArrow=none;endFill=0;fontFamily=Carlito;fontSource=https%3A%2F%2Ffonts.googleapis.com%2Fcss%3Ffamily%3DCarlito;" edge="1" parent="1" source="hHyLVONSQbWsYgpsv_cf-26" target="hHyLVONSQbWsYgpsv_cf-4">
          <mxGeometry relative="1" as="geometry" />
        </mxCell>
        <mxCell id="hHyLVONSQbWsYgpsv_cf-37" style="edgeStyle=orthogonalEdgeStyle;rounded=0;orthogonalLoop=1;jettySize=auto;html=1;exitX=1;exitY=0.5;exitDx=0;exitDy=0;entryX=0;entryY=0.5;entryDx=0;entryDy=0;endArrow=none;endFill=0;fontFamily=Carlito;fontSource=https%3A%2F%2Ffonts.googleapis.com%2Fcss%3Ffamily%3DCarlito;" edge="1" parent="1" source="hHyLVONSQbWsYgpsv_cf-27" target="hHyLVONSQbWsYgpsv_cf-4">
          <mxGeometry relative="1" as="geometry" />
        </mxCell>
        <mxCell id="hHyLVONSQbWsYgpsv_cf-33" style="edgeStyle=orthogonalEdgeStyle;rounded=0;orthogonalLoop=1;jettySize=auto;html=1;exitX=1;exitY=0.5;exitDx=0;exitDy=0;endArrow=none;endFill=0;fontFamily=Carlito;fontSource=https%3A%2F%2Ffonts.googleapis.com%2Fcss%3Ffamily%3DCarlito;" edge="1" parent="1" source="hHyLVONSQbWsYgpsv_cf-31" target="hHyLVONSQbWsYgpsv_cf-1">
          <mxGeometry relative="1" as="geometry" />
        </mxCell>
        <mxCell id="hHyLVONSQbWsYgpsv_cf-35" style="edgeStyle=orthogonalEdgeStyle;rounded=0;orthogonalLoop=1;jettySize=auto;html=1;exitX=1;exitY=0.5;exitDx=0;exitDy=0;entryX=0;entryY=0.5;entryDx=0;entryDy=0;endArrow=none;endFill=0;fontFamily=Carlito;fontSource=https%3A%2F%2Ffonts.googleapis.com%2Fcss%3Ffamily%3DCarlito;" edge="1" parent="1" source="hHyLVONSQbWsYgpsv_cf-32" target="hHyLVONSQbWsYgpsv_cf-1">
          <mxGeometry relative="1" as="geometry" />
        </mxCell>
        <mxCell id="hHyLVONSQbWsYgpsv_cf-55" style="edgeStyle=orthogonalEdgeStyle;rounded=0;orthogonalLoop=1;jettySize=auto;html=1;entryX=0;entryY=0.5;entryDx=0;entryDy=0;endArrow=none;endFill=0;fontFamily=Carlito;fontSource=https%3A%2F%2Ffonts.googleapis.com%2Fcss%3Ffamily%3DCarlito;" edge="1" parent="1" source="1P8ZaYaiMlp0uqTCscuJ-4" target="1P8ZaYaiMlp0uqTCscuJ-2">
          <mxGeometry relative="1" as="geometry" />
        </mxCell>
        <mxCell id="1P8ZaYaiMlp0uqTCscuJ-4" value="&lt;u&gt;Patient_ID&lt;/u&gt;" style="ellipse;whiteSpace=wrap;html=1;fontFamily=Carlito;fontSource=https%3A%2F%2Ffonts.googleapis.com%2Fcss%3Ffamily%3DCarlito;" parent="1" vertex="1">
          <mxGeometry x="160" y="10" width="120" height="50" as="geometry" />
        </mxCell>
        <mxCell id="hHyLVONSQbWsYgpsv_cf-19" value="&lt;div&gt;Status&lt;/div&gt;" style="ellipse;whiteSpace=wrap;html=1;fontStyle=0;fontFamily=Carlito;fontSource=https%3A%2F%2Ffonts.googleapis.com%2Fcss%3Ffamily%3DCarlito;" vertex="1" parent="1">
          <mxGeometry x="160" y="560" width="120" height="50" as="geometry" />
        </mxCell>
        <mxCell id="hHyLVONSQbWsYgpsv_cf-58" style="edgeStyle=orthogonalEdgeStyle;rounded=0;orthogonalLoop=1;jettySize=auto;html=1;exitX=1;exitY=0.5;exitDx=0;exitDy=0;entryX=0;entryY=0.5;entryDx=0;entryDy=0;endArrow=none;endFill=0;fontFamily=Carlito;fontSource=https%3A%2F%2Ffonts.googleapis.com%2Fcss%3Ffamily%3DCarlito;" edge="1" parent="1" source="hHyLVONSQbWsYgpsv_cf-9" target="1P8ZaYaiMlp0uqTCscuJ-2">
          <mxGeometry relative="1" as="geometry" />
        </mxCell>
        <mxCell id="hHyLVONSQbWsYgpsv_cf-64" style="edgeStyle=orthogonalEdgeStyle;rounded=0;orthogonalLoop=1;jettySize=auto;html=1;exitX=1;exitY=0.5;exitDx=0;exitDy=0;entryX=0.25;entryY=0;entryDx=0;entryDy=0;startArrow=none;startFill=0;endArrow=ERoneToMany;endFill=0;fontFamily=Carlito;fontSource=https%3A%2F%2Ffonts.googleapis.com%2Fcss%3Ffamily%3DCarlito;" edge="1" parent="1" source="hHyLVONSQbWsYgpsv_cf-59" target="hHyLVONSQbWsYgpsv_cf-62">
          <mxGeometry relative="1" as="geometry" />
        </mxCell>
        <mxCell id="hHyLVONSQbWsYgpsv_cf-59" value="Consults" style="rhombus;whiteSpace=wrap;html=1;fontFamily=Carlito;fontSource=https%3A%2F%2Ffonts.googleapis.com%2Fcss%3Ffamily%3DCarlito;" vertex="1" parent="1">
          <mxGeometry x="640" y="200" width="100" height="80" as="geometry" />
        </mxCell>
        <mxCell id="hHyLVONSQbWsYgpsv_cf-66" style="edgeStyle=orthogonalEdgeStyle;rounded=0;orthogonalLoop=1;jettySize=auto;html=1;entryX=0.75;entryY=1;entryDx=0;entryDy=0;endArrow=ERzeroToMany;endFill=0;curved=0;fontFamily=Carlito;fontSource=https%3A%2F%2Ffonts.googleapis.com%2Fcss%3Ffamily%3DCarlito;" edge="1" parent="1" source="hHyLVONSQbWsYgpsv_cf-61" target="1P8ZaYaiMlp0uqTCscuJ-2">
          <mxGeometry relative="1" as="geometry" />
        </mxCell>
        <mxCell id="hHyLVONSQbWsYgpsv_cf-61" value="Treats" style="rhombus;whiteSpace=wrap;html=1;fontFamily=Carlito;fontSource=https%3A%2F%2Ffonts.googleapis.com%2Fcss%3Ffamily%3DCarlito;" vertex="1" parent="1">
          <mxGeometry x="640" y="340" width="100" height="80" as="geometry" />
        </mxCell>
        <mxCell id="hHyLVONSQbWsYgpsv_cf-91" style="edgeStyle=orthogonalEdgeStyle;rounded=0;orthogonalLoop=1;jettySize=auto;html=1;exitX=0.5;exitY=1;exitDx=0;exitDy=0;entryX=0.5;entryY=0;entryDx=0;entryDy=0;endArrow=none;endFill=0;startArrow=ERmandOne;startFill=0;" edge="1" parent="1" source="hHyLVONSQbWsYgpsv_cf-62" target="hHyLVONSQbWsYgpsv_cf-89">
          <mxGeometry relative="1" as="geometry" />
        </mxCell>
        <mxCell id="hHyLVONSQbWsYgpsv_cf-129" style="edgeStyle=orthogonalEdgeStyle;rounded=0;orthogonalLoop=1;jettySize=auto;html=1;endArrow=ERmandOne;endFill=0;" edge="1" parent="1" source="hHyLVONSQbWsYgpsv_cf-127" target="hHyLVONSQbWsYgpsv_cf-62">
          <mxGeometry relative="1" as="geometry" />
        </mxCell>
        <mxCell id="hHyLVONSQbWsYgpsv_cf-62" value="Doctor" style="rounded=0;whiteSpace=wrap;html=1;flipH=1;flipV=0;fontFamily=Carlito;fontSource=https%3A%2F%2Ffonts.googleapis.com%2Fcss%3Ffamily%3DCarlito;" vertex="1" parent="1">
          <mxGeometry x="870" y="280" width="120" height="60" as="geometry" />
        </mxCell>
        <mxCell id="hHyLVONSQbWsYgpsv_cf-65" style="edgeStyle=orthogonalEdgeStyle;rounded=0;orthogonalLoop=1;jettySize=auto;html=1;exitX=0.25;exitY=1;exitDx=0;exitDy=0;entryX=1;entryY=0.5;entryDx=0;entryDy=0;endArrow=none;endFill=0;startArrow=ERmandOne;startFill=0;fontFamily=Carlito;fontSource=https%3A%2F%2Ffonts.googleapis.com%2Fcss%3Ffamily%3DCarlito;" edge="1" parent="1" source="hHyLVONSQbWsYgpsv_cf-62" target="hHyLVONSQbWsYgpsv_cf-61">
          <mxGeometry relative="1" as="geometry" />
        </mxCell>
        <mxCell id="hHyLVONSQbWsYgpsv_cf-78" style="edgeStyle=orthogonalEdgeStyle;rounded=0;orthogonalLoop=1;jettySize=auto;html=1;endArrow=none;endFill=0;fontFamily=Carlito;fontSource=https%3A%2F%2Ffonts.googleapis.com%2Fcss%3Ffamily%3DCarlito;" edge="1" parent="1" source="hHyLVONSQbWsYgpsv_cf-67" target="hHyLVONSQbWsYgpsv_cf-62">
          <mxGeometry relative="1" as="geometry" />
        </mxCell>
        <mxCell id="hHyLVONSQbWsYgpsv_cf-67" value="&lt;div&gt;Phone Number&lt;/div&gt;" style="ellipse;whiteSpace=wrap;html=1;fontStyle=0;fontFamily=Carlito;fontSource=https%3A%2F%2Ffonts.googleapis.com%2Fcss%3Ffamily%3DCarlito;" vertex="1" parent="1">
          <mxGeometry x="1090" y="285" width="120" height="50" as="geometry" />
        </mxCell>
        <mxCell id="hHyLVONSQbWsYgpsv_cf-77" style="edgeStyle=orthogonalEdgeStyle;rounded=0;orthogonalLoop=1;jettySize=auto;html=1;entryX=1;entryY=0.5;entryDx=0;entryDy=0;endArrow=none;endFill=0;fontFamily=Carlito;fontSource=https%3A%2F%2Ffonts.googleapis.com%2Fcss%3Ffamily%3DCarlito;" edge="1" parent="1" source="hHyLVONSQbWsYgpsv_cf-68" target="hHyLVONSQbWsYgpsv_cf-62">
          <mxGeometry relative="1" as="geometry" />
        </mxCell>
        <mxCell id="hHyLVONSQbWsYgpsv_cf-68" value="Specialization" style="ellipse;whiteSpace=wrap;html=1;fontStyle=0;fontFamily=Carlito;fontSource=https%3A%2F%2Ffonts.googleapis.com%2Fcss%3Ffamily%3DCarlito;" vertex="1" parent="1">
          <mxGeometry x="1090" y="225" width="120" height="50" as="geometry" />
        </mxCell>
        <mxCell id="hHyLVONSQbWsYgpsv_cf-75" style="edgeStyle=orthogonalEdgeStyle;rounded=0;orthogonalLoop=1;jettySize=auto;html=1;entryX=1;entryY=0.5;entryDx=0;entryDy=0;endArrow=none;endFill=0;fontFamily=Carlito;fontSource=https%3A%2F%2Ffonts.googleapis.com%2Fcss%3Ffamily%3DCarlito;" edge="1" parent="1" source="hHyLVONSQbWsYgpsv_cf-69" target="hHyLVONSQbWsYgpsv_cf-62">
          <mxGeometry relative="1" as="geometry">
            <mxPoint x="1000" y="330" as="targetPoint" />
          </mxGeometry>
        </mxCell>
        <mxCell id="hHyLVONSQbWsYgpsv_cf-69" value="Name" style="ellipse;whiteSpace=wrap;html=1;fontStyle=0;fontFamily=Carlito;fontSource=https%3A%2F%2Ffonts.googleapis.com%2Fcss%3Ffamily%3DCarlito;" vertex="1" parent="1">
          <mxGeometry x="1090" y="165" width="120" height="50" as="geometry" />
        </mxCell>
        <mxCell id="hHyLVONSQbWsYgpsv_cf-74" style="edgeStyle=orthogonalEdgeStyle;rounded=0;orthogonalLoop=1;jettySize=auto;html=1;exitX=0;exitY=0.5;exitDx=0;exitDy=0;entryX=1;entryY=0.5;entryDx=0;entryDy=0;endArrow=none;endFill=0;fontFamily=Carlito;fontSource=https%3A%2F%2Ffonts.googleapis.com%2Fcss%3Ffamily%3DCarlito;" edge="1" parent="1" source="hHyLVONSQbWsYgpsv_cf-70" target="hHyLVONSQbWsYgpsv_cf-62">
          <mxGeometry relative="1" as="geometry" />
        </mxCell>
        <mxCell id="hHyLVONSQbWsYgpsv_cf-70" value="&lt;u&gt;Doctor_ID&lt;/u&gt;" style="ellipse;whiteSpace=wrap;html=1;fontStyle=0;fontFamily=Carlito;fontSource=https%3A%2F%2Ffonts.googleapis.com%2Fcss%3Ffamily%3DCarlito;" vertex="1" parent="1">
          <mxGeometry x="1090" y="105" width="120" height="50" as="geometry" />
        </mxCell>
        <mxCell id="hHyLVONSQbWsYgpsv_cf-79" style="edgeStyle=orthogonalEdgeStyle;rounded=0;orthogonalLoop=1;jettySize=auto;html=1;entryX=1;entryY=0.5;entryDx=0;entryDy=0;endArrow=none;endFill=0;fontFamily=Carlito;fontSource=https%3A%2F%2Ffonts.googleapis.com%2Fcss%3Ffamily%3DCarlito;" edge="1" parent="1" source="hHyLVONSQbWsYgpsv_cf-71" target="hHyLVONSQbWsYgpsv_cf-62">
          <mxGeometry relative="1" as="geometry" />
        </mxCell>
        <mxCell id="hHyLVONSQbWsYgpsv_cf-71" value="&lt;div&gt;Email&lt;/div&gt;" style="ellipse;whiteSpace=wrap;html=1;fontStyle=0;fontFamily=Carlito;fontSource=https%3A%2F%2Ffonts.googleapis.com%2Fcss%3Ffamily%3DCarlito;" vertex="1" parent="1">
          <mxGeometry x="1090" y="345" width="120" height="50" as="geometry" />
        </mxCell>
        <mxCell id="hHyLVONSQbWsYgpsv_cf-80" style="edgeStyle=orthogonalEdgeStyle;rounded=0;orthogonalLoop=1;jettySize=auto;html=1;entryX=1;entryY=0.5;entryDx=0;entryDy=0;endArrow=none;endFill=0;fontFamily=Carlito;fontSource=https%3A%2F%2Ffonts.googleapis.com%2Fcss%3Ffamily%3DCarlito;" edge="1" parent="1" source="hHyLVONSQbWsYgpsv_cf-72" target="hHyLVONSQbWsYgpsv_cf-62">
          <mxGeometry relative="1" as="geometry" />
        </mxCell>
        <mxCell id="hHyLVONSQbWsYgpsv_cf-72" value="&lt;div&gt;Position&lt;/div&gt;" style="ellipse;whiteSpace=wrap;html=1;fontStyle=0;fontFamily=Carlito;fontSource=https%3A%2F%2Ffonts.googleapis.com%2Fcss%3Ffamily%3DCarlito;" vertex="1" parent="1">
          <mxGeometry x="1090" y="405" width="120" height="50" as="geometry" />
        </mxCell>
        <mxCell id="hHyLVONSQbWsYgpsv_cf-81" style="edgeStyle=orthogonalEdgeStyle;rounded=0;orthogonalLoop=1;jettySize=auto;html=1;entryX=1;entryY=0.5;entryDx=0;entryDy=0;endArrow=none;endFill=0;exitX=0;exitY=0.5;exitDx=0;exitDy=0;fontFamily=Carlito;fontSource=https%3A%2F%2Ffonts.googleapis.com%2Fcss%3Ffamily%3DCarlito;" edge="1" parent="1" source="hHyLVONSQbWsYgpsv_cf-83" target="hHyLVONSQbWsYgpsv_cf-62">
          <mxGeometry relative="1" as="geometry">
            <mxPoint x="1090.0000315581938" y="490.025641025641" as="sourcePoint" />
          </mxGeometry>
        </mxCell>
        <mxCell id="hHyLVONSQbWsYgpsv_cf-85" value="" style="group;fontFamily=Carlito;fontSource=https%3A%2F%2Ffonts.googleapis.com%2Fcss%3Ffamily%3DCarlito;" vertex="1" connectable="0" parent="1">
          <mxGeometry x="1090" y="465" width="127.5" height="60" as="geometry" />
        </mxCell>
        <mxCell id="hHyLVONSQbWsYgpsv_cf-83" value="&lt;div&gt;Religion&lt;/div&gt;" style="ellipse;whiteSpace=wrap;html=1;fontStyle=0;fontFamily=Carlito;fontSource=https%3A%2F%2Ffonts.googleapis.com%2Fcss%3Ffamily%3DCarlito;" vertex="1" parent="hHyLVONSQbWsYgpsv_cf-85">
          <mxGeometry width="127.5" height="60" as="geometry" />
        </mxCell>
        <mxCell id="hHyLVONSQbWsYgpsv_cf-84" value="Patient_ID" style="ellipse;whiteSpace=wrap;html=1;fontStyle=0;fontFamily=Carlito;fontSource=https%3A%2F%2Ffonts.googleapis.com%2Fcss%3Ffamily%3DCarlito;" vertex="1" parent="hHyLVONSQbWsYgpsv_cf-85">
          <mxGeometry x="3.75" y="5" width="120" height="50" as="geometry" />
        </mxCell>
        <mxCell id="hHyLVONSQbWsYgpsv_cf-96" style="edgeStyle=orthogonalEdgeStyle;rounded=0;orthogonalLoop=1;jettySize=auto;html=1;entryX=0.25;entryY=0;entryDx=0;entryDy=0;startArrow=none;startFill=0;endArrow=ERzeroToMany;endFill=0;" edge="1" parent="1" source="hHyLVONSQbWsYgpsv_cf-88" target="hHyLVONSQbWsYgpsv_cf-92">
          <mxGeometry relative="1" as="geometry" />
        </mxCell>
        <mxCell id="hHyLVONSQbWsYgpsv_cf-88" value="Is Prescribed" style="rhombus;whiteSpace=wrap;html=1;fontFamily=Carlito;fontSource=https%3A%2F%2Ffonts.googleapis.com%2Fcss%3Ffamily%3DCarlito;" vertex="1" parent="1">
          <mxGeometry x="380" y="480" width="100" height="80" as="geometry" />
        </mxCell>
        <mxCell id="hHyLVONSQbWsYgpsv_cf-97" style="edgeStyle=orthogonalEdgeStyle;rounded=0;orthogonalLoop=1;jettySize=auto;html=1;exitX=0.75;exitY=0;exitDx=0;exitDy=0;entryX=0;entryY=0.5;entryDx=0;entryDy=0;startArrow=ERzeroToMany;startFill=0;endArrow=none;endFill=0;" edge="1" parent="1" source="hHyLVONSQbWsYgpsv_cf-92" target="hHyLVONSQbWsYgpsv_cf-89">
          <mxGeometry relative="1" as="geometry" />
        </mxCell>
        <mxCell id="hHyLVONSQbWsYgpsv_cf-89" value="Prescribes" style="rhombus;whiteSpace=wrap;html=1;fontFamily=Carlito;fontSource=https%3A%2F%2Ffonts.googleapis.com%2Fcss%3Ffamily%3DCarlito;" vertex="1" parent="1">
          <mxGeometry x="880" y="480" width="100" height="80" as="geometry" />
        </mxCell>
        <mxCell id="hHyLVONSQbWsYgpsv_cf-92" value="Medication" style="rounded=0;whiteSpace=wrap;html=1;flipH=1;flipV=0;fontFamily=Carlito;fontSource=https%3A%2F%2Ffonts.googleapis.com%2Fcss%3Ffamily%3DCarlito;" vertex="1" parent="1">
          <mxGeometry x="630" y="570" width="120" height="60" as="geometry" />
        </mxCell>
        <mxCell id="hHyLVONSQbWsYgpsv_cf-118" style="edgeStyle=orthogonalEdgeStyle;rounded=0;orthogonalLoop=1;jettySize=auto;html=1;exitX=0.5;exitY=0;exitDx=0;exitDy=0;endArrow=none;endFill=0;" edge="1" parent="1" source="hHyLVONSQbWsYgpsv_cf-98" target="hHyLVONSQbWsYgpsv_cf-92">
          <mxGeometry relative="1" as="geometry" />
        </mxCell>
        <mxCell id="hHyLVONSQbWsYgpsv_cf-98" value="Date Given" style="ellipse;whiteSpace=wrap;html=1;fontStyle=0;fontFamily=Carlito;fontSource=https%3A%2F%2Ffonts.googleapis.com%2Fcss%3Ffamily%3DCarlito;" vertex="1" parent="1">
          <mxGeometry x="560" y="670" width="120" height="50" as="geometry" />
        </mxCell>
        <mxCell id="hHyLVONSQbWsYgpsv_cf-117" style="edgeStyle=orthogonalEdgeStyle;rounded=0;orthogonalLoop=1;jettySize=auto;html=1;exitX=0.5;exitY=0;exitDx=0;exitDy=0;endArrow=none;endFill=0;" edge="1" parent="1" source="hHyLVONSQbWsYgpsv_cf-99" target="hHyLVONSQbWsYgpsv_cf-92">
          <mxGeometry relative="1" as="geometry" />
        </mxCell>
        <mxCell id="hHyLVONSQbWsYgpsv_cf-99" value="Brand Name" style="ellipse;whiteSpace=wrap;html=1;fontStyle=0;fontFamily=Carlito;fontSource=https%3A%2F%2Ffonts.googleapis.com%2Fcss%3Ffamily%3DCarlito;" vertex="1" parent="1">
          <mxGeometry x="430" y="670" width="120" height="50" as="geometry" />
        </mxCell>
        <mxCell id="hHyLVONSQbWsYgpsv_cf-116" style="edgeStyle=orthogonalEdgeStyle;rounded=0;orthogonalLoop=1;jettySize=auto;html=1;exitX=0.5;exitY=0;exitDx=0;exitDy=0;endArrow=none;endFill=0;" edge="1" parent="1" source="hHyLVONSQbWsYgpsv_cf-100" target="hHyLVONSQbWsYgpsv_cf-92">
          <mxGeometry relative="1" as="geometry" />
        </mxCell>
        <mxCell id="hHyLVONSQbWsYgpsv_cf-100" value="Generic Name" style="ellipse;whiteSpace=wrap;html=1;fontStyle=0;fontFamily=Carlito;fontSource=https%3A%2F%2Ffonts.googleapis.com%2Fcss%3Ffamily%3DCarlito;" vertex="1" parent="1">
          <mxGeometry x="300" y="670" width="120" height="50" as="geometry" />
        </mxCell>
        <mxCell id="hHyLVONSQbWsYgpsv_cf-112" style="edgeStyle=orthogonalEdgeStyle;rounded=0;orthogonalLoop=1;jettySize=auto;html=1;exitX=0.5;exitY=0;exitDx=0;exitDy=0;entryX=0.5;entryY=1;entryDx=0;entryDy=0;endArrow=none;endFill=0;" edge="1" parent="1" source="hHyLVONSQbWsYgpsv_cf-101" target="hHyLVONSQbWsYgpsv_cf-92">
          <mxGeometry relative="1" as="geometry" />
        </mxCell>
        <mxCell id="hHyLVONSQbWsYgpsv_cf-101" value="&lt;u&gt;Medication_ID&lt;/u&gt;" style="ellipse;whiteSpace=wrap;html=1;fontStyle=0;fontFamily=Carlito;fontSource=https%3A%2F%2Ffonts.googleapis.com%2Fcss%3Ffamily%3DCarlito;" vertex="1" parent="1">
          <mxGeometry x="170" y="670" width="120" height="50" as="geometry" />
        </mxCell>
        <mxCell id="hHyLVONSQbWsYgpsv_cf-120" style="edgeStyle=orthogonalEdgeStyle;rounded=0;orthogonalLoop=1;jettySize=auto;html=1;exitX=0.5;exitY=0;exitDx=0;exitDy=0;endArrow=none;endFill=0;" edge="1" parent="1" source="hHyLVONSQbWsYgpsv_cf-104" target="hHyLVONSQbWsYgpsv_cf-92">
          <mxGeometry relative="1" as="geometry" />
        </mxCell>
        <mxCell id="hHyLVONSQbWsYgpsv_cf-104" value="Frequency" style="ellipse;whiteSpace=wrap;html=1;fontStyle=0;fontFamily=Carlito;fontSource=https%3A%2F%2Ffonts.googleapis.com%2Fcss%3Ffamily%3DCarlito;" vertex="1" parent="1">
          <mxGeometry x="700" y="670" width="120" height="50" as="geometry" />
        </mxCell>
        <mxCell id="hHyLVONSQbWsYgpsv_cf-121" style="edgeStyle=orthogonalEdgeStyle;rounded=0;orthogonalLoop=1;jettySize=auto;html=1;exitX=0.5;exitY=0;exitDx=0;exitDy=0;endArrow=none;endFill=0;" edge="1" parent="1" source="hHyLVONSQbWsYgpsv_cf-106" target="hHyLVONSQbWsYgpsv_cf-92">
          <mxGeometry relative="1" as="geometry" />
        </mxCell>
        <mxCell id="hHyLVONSQbWsYgpsv_cf-106" value="Dosage" style="ellipse;whiteSpace=wrap;html=1;fontStyle=0;fontFamily=Carlito;fontSource=https%3A%2F%2Ffonts.googleapis.com%2Fcss%3Ffamily%3DCarlito;" vertex="1" parent="1">
          <mxGeometry x="830" y="670" width="120" height="50" as="geometry" />
        </mxCell>
        <mxCell id="hHyLVONSQbWsYgpsv_cf-123" style="edgeStyle=orthogonalEdgeStyle;rounded=0;orthogonalLoop=1;jettySize=auto;html=1;exitX=0.5;exitY=0;exitDx=0;exitDy=0;endArrow=none;endFill=0;" edge="1" parent="1" source="hHyLVONSQbWsYgpsv_cf-108" target="hHyLVONSQbWsYgpsv_cf-92">
          <mxGeometry relative="1" as="geometry" />
        </mxCell>
        <mxCell id="hHyLVONSQbWsYgpsv_cf-108" value="&lt;div&gt;&lt;u&gt;Doctor_ID&lt;/u&gt;&lt;/div&gt;&lt;div style=&quot;font-size: 10px;&quot;&gt;&lt;i&gt;Prescribing Doctor&lt;/i&gt;&lt;/div&gt;" style="ellipse;whiteSpace=wrap;html=1;fontStyle=0;fontFamily=Carlito;fontSource=https%3A%2F%2Ffonts.googleapis.com%2Fcss%3Ffamily%3DCarlito;" vertex="1" parent="1">
          <mxGeometry x="960" y="670" width="120" height="50" as="geometry" />
        </mxCell>
        <mxCell id="hHyLVONSQbWsYgpsv_cf-122" style="edgeStyle=orthogonalEdgeStyle;rounded=0;orthogonalLoop=1;jettySize=auto;html=1;exitX=0.5;exitY=0;exitDx=0;exitDy=0;endArrow=none;endFill=0;" edge="1" parent="1" source="hHyLVONSQbWsYgpsv_cf-109" target="hHyLVONSQbWsYgpsv_cf-92">
          <mxGeometry relative="1" as="geometry" />
        </mxCell>
        <mxCell id="hHyLVONSQbWsYgpsv_cf-109" value="&lt;div&gt;&lt;u&gt;Patient_ID&lt;/u&gt;&lt;/div&gt;&lt;div&gt;&lt;i&gt;&lt;font style=&quot;font-size: 10px;&quot;&gt;Prescription Recepient&lt;/font&gt;&lt;/i&gt;&lt;br&gt;&lt;/div&gt;" style="ellipse;whiteSpace=wrap;html=1;fontStyle=0;fontFamily=Carlito;fontSource=https%3A%2F%2Ffonts.googleapis.com%2Fcss%3Ffamily%3DCarlito;" vertex="1" parent="1">
          <mxGeometry x="1090" y="670" width="120" height="50" as="geometry" />
        </mxCell>
        <mxCell id="hHyLVONSQbWsYgpsv_cf-131" style="edgeStyle=orthogonalEdgeStyle;rounded=0;orthogonalLoop=1;jettySize=auto;html=1;exitX=0.25;exitY=1;exitDx=0;exitDy=0;entryX=1;entryY=0.5;entryDx=0;entryDy=0;endArrow=none;endFill=0;startArrow=ERoneToMany;startFill=0;" edge="1" parent="1" source="hHyLVONSQbWsYgpsv_cf-130" target="hHyLVONSQbWsYgpsv_cf-126">
          <mxGeometry relative="1" as="geometry" />
        </mxCell>
        <mxCell id="hHyLVONSQbWsYgpsv_cf-126" value="Has a" style="rhombus;whiteSpace=wrap;html=1;fontFamily=Carlito;fontSource=https%3A%2F%2Ffonts.googleapis.com%2Fcss%3Ffamily%3DCarlito;" vertex="1" parent="1">
          <mxGeometry x="380" y="60" width="100" height="80" as="geometry" />
        </mxCell>
        <mxCell id="hHyLVONSQbWsYgpsv_cf-132" style="edgeStyle=orthogonalEdgeStyle;rounded=0;orthogonalLoop=1;jettySize=auto;html=1;exitX=0;exitY=0.5;exitDx=0;exitDy=0;entryX=0.75;entryY=1;entryDx=0;entryDy=0;endArrow=ERzeroToMany;endFill=0;" edge="1" parent="1" source="hHyLVONSQbWsYgpsv_cf-127" target="hHyLVONSQbWsYgpsv_cf-130">
          <mxGeometry relative="1" as="geometry" />
        </mxCell>
        <mxCell id="hHyLVONSQbWsYgpsv_cf-127" value="Makes a" style="rhombus;whiteSpace=wrap;html=1;fontFamily=Carlito;fontSource=https%3A%2F%2Ffonts.googleapis.com%2Fcss%3Ffamily%3DCarlito;" vertex="1" parent="1">
          <mxGeometry x="880" y="60" width="100" height="80" as="geometry" />
        </mxCell>
        <mxCell id="hHyLVONSQbWsYgpsv_cf-130" value="Medical" style="rounded=0;whiteSpace=wrap;html=1;flipH=1;flipV=0;fontFamily=Carlito;fontSource=https%3A%2F%2Ffonts.googleapis.com%2Fcss%3Ffamily%3DCarlito;" vertex="1" parent="1">
          <mxGeometry x="630" y="-50" width="120" height="60" as="geometry" />
        </mxCell>
        <mxCell id="hHyLVONSQbWsYgpsv_cf-156" value="" style="group" vertex="1" connectable="0" parent="1">
          <mxGeometry x="152.5" y="490" width="127.5" height="60" as="geometry" />
        </mxCell>
        <mxCell id="hHyLVONSQbWsYgpsv_cf-9" value="&lt;div&gt;Religion&lt;/div&gt;" style="ellipse;whiteSpace=wrap;html=1;fontStyle=0;fontFamily=Carlito;fontSource=https%3A%2F%2Ffonts.googleapis.com%2Fcss%3Ffamily%3DCarlito;" vertex="1" parent="hHyLVONSQbWsYgpsv_cf-156">
          <mxGeometry width="127.5" height="60" as="geometry" />
        </mxCell>
        <mxCell id="hHyLVONSQbWsYgpsv_cf-8" value="Doctor_ID" style="ellipse;whiteSpace=wrap;html=1;fontStyle=0;fontFamily=Carlito;fontSource=https%3A%2F%2Ffonts.googleapis.com%2Fcss%3Ffamily%3DCarlito;" vertex="1" parent="hHyLVONSQbWsYgpsv_cf-156">
          <mxGeometry x="3.75" y="5" width="120" height="50" as="geometry" />
        </mxCell>
        <mxCell id="hHyLVONSQbWsYgpsv_cf-175" style="edgeStyle=orthogonalEdgeStyle;rounded=0;orthogonalLoop=1;jettySize=auto;html=1;exitX=0.5;exitY=1;exitDx=0;exitDy=0;" edge="1" parent="1" source="hHyLVONSQbWsYgpsv_cf-133" target="hHyLVONSQbWsYgpsv_cf-130">
          <mxGeometry relative="1" as="geometry" />
        </mxCell>
        <mxCell id="hHyLVONSQbWsYgpsv_cf-133" value="&lt;u&gt;Patient_ID&lt;/u&gt;" style="ellipse;whiteSpace=wrap;html=1;fontFamily=Carlito;fontSource=https%3A%2F%2Ffonts.googleapis.com%2Fcss%3Ffamily%3DCarlito;" vertex="1" parent="1">
          <mxGeometry x="572.75" y="-143" width="120" height="50" as="geometry" />
        </mxCell>
        <mxCell id="hHyLVONSQbWsYgpsv_cf-174" style="edgeStyle=orthogonalEdgeStyle;rounded=0;orthogonalLoop=1;jettySize=auto;html=1;exitX=0.5;exitY=1;exitDx=0;exitDy=0;" edge="1" parent="1" source="hHyLVONSQbWsYgpsv_cf-135" target="hHyLVONSQbWsYgpsv_cf-130">
          <mxGeometry relative="1" as="geometry" />
        </mxCell>
        <mxCell id="hHyLVONSQbWsYgpsv_cf-135" value="Temperature" style="ellipse;whiteSpace=wrap;html=1;fontFamily=Carlito;fontSource=https%3A%2F%2Ffonts.googleapis.com%2Fcss%3Ffamily%3DCarlito;" vertex="1" parent="1">
          <mxGeometry x="702.75" y="-143" width="120" height="50" as="geometry" />
        </mxCell>
        <mxCell id="hHyLVONSQbWsYgpsv_cf-176" style="edgeStyle=orthogonalEdgeStyle;rounded=0;orthogonalLoop=1;jettySize=auto;html=1;exitX=0.5;exitY=1;exitDx=0;exitDy=0;" edge="1" parent="1" source="hHyLVONSQbWsYgpsv_cf-136" target="hHyLVONSQbWsYgpsv_cf-130">
          <mxGeometry relative="1" as="geometry" />
        </mxCell>
        <mxCell id="hHyLVONSQbWsYgpsv_cf-136" value="&lt;div&gt;&lt;u&gt;Doctor_ID&lt;/u&gt;&lt;/div&gt;&lt;div style=&quot;font-size: 10px;&quot;&gt;Attending Physician&lt;br&gt;&lt;/div&gt;" style="ellipse;whiteSpace=wrap;html=1;fontFamily=Carlito;fontSource=https%3A%2F%2Ffonts.googleapis.com%2Fcss%3Ffamily%3DCarlito;" vertex="1" parent="1">
          <mxGeometry x="442.75" y="-143" width="120" height="50" as="geometry" />
        </mxCell>
        <mxCell id="hHyLVONSQbWsYgpsv_cf-171" style="edgeStyle=orthogonalEdgeStyle;rounded=0;orthogonalLoop=1;jettySize=auto;html=1;exitX=0.5;exitY=1;exitDx=0;exitDy=0;entryX=0.5;entryY=0;entryDx=0;entryDy=0;" edge="1" parent="1" source="hHyLVONSQbWsYgpsv_cf-151" target="hHyLVONSQbWsYgpsv_cf-130">
          <mxGeometry relative="1" as="geometry" />
        </mxCell>
        <mxCell id="hHyLVONSQbWsYgpsv_cf-151" value="Blood Pressure" style="ellipse;whiteSpace=wrap;html=1;fontFamily=Carlito;fontSource=https%3A%2F%2Ffonts.googleapis.com%2Fcss%3Ffamily%3DCarlito;" vertex="1" parent="1">
          <mxGeometry x="1092.75" y="-143" width="120" height="50" as="geometry" />
        </mxCell>
        <mxCell id="hHyLVONSQbWsYgpsv_cf-170" style="edgeStyle=orthogonalEdgeStyle;rounded=0;orthogonalLoop=1;jettySize=auto;html=1;exitX=0.5;exitY=1;exitDx=0;exitDy=0;entryX=0.5;entryY=0;entryDx=0;entryDy=0;" edge="1" parent="1" source="hHyLVONSQbWsYgpsv_cf-152" target="hHyLVONSQbWsYgpsv_cf-130">
          <mxGeometry relative="1" as="geometry" />
        </mxCell>
        <mxCell id="hHyLVONSQbWsYgpsv_cf-152" value="SPO2" style="ellipse;whiteSpace=wrap;html=1;fontFamily=Carlito;fontSource=https%3A%2F%2Ffonts.googleapis.com%2Fcss%3Ffamily%3DCarlito;" vertex="1" parent="1">
          <mxGeometry x="1222.75" y="-143" width="120" height="50" as="geometry" />
        </mxCell>
        <mxCell id="hHyLVONSQbWsYgpsv_cf-172" style="edgeStyle=orthogonalEdgeStyle;rounded=0;orthogonalLoop=1;jettySize=auto;html=1;exitX=0.5;exitY=1;exitDx=0;exitDy=0;" edge="1" parent="1" source="hHyLVONSQbWsYgpsv_cf-153" target="hHyLVONSQbWsYgpsv_cf-130">
          <mxGeometry relative="1" as="geometry" />
        </mxCell>
        <mxCell id="hHyLVONSQbWsYgpsv_cf-153" value="Respiratory Rate" style="ellipse;whiteSpace=wrap;html=1;fontFamily=Carlito;fontSource=https%3A%2F%2Ffonts.googleapis.com%2Fcss%3Ffamily%3DCarlito;" vertex="1" parent="1">
          <mxGeometry x="962.75" y="-143" width="120" height="50" as="geometry" />
        </mxCell>
        <mxCell id="hHyLVONSQbWsYgpsv_cf-169" style="edgeStyle=orthogonalEdgeStyle;rounded=0;orthogonalLoop=1;jettySize=auto;html=1;exitX=0.5;exitY=1;exitDx=0;exitDy=0;entryX=0.5;entryY=0;entryDx=0;entryDy=0;" edge="1" parent="1" source="hHyLVONSQbWsYgpsv_cf-154" target="hHyLVONSQbWsYgpsv_cf-130">
          <mxGeometry relative="1" as="geometry" />
        </mxCell>
        <mxCell id="hHyLVONSQbWsYgpsv_cf-154" value="Date Taken" style="ellipse;whiteSpace=wrap;html=1;fontFamily=Carlito;fontSource=https%3A%2F%2Ffonts.googleapis.com%2Fcss%3Ffamily%3DCarlito;" vertex="1" parent="1">
          <mxGeometry x="1352.75" y="-143" width="120" height="50" as="geometry" />
        </mxCell>
        <mxCell id="hHyLVONSQbWsYgpsv_cf-173" style="edgeStyle=orthogonalEdgeStyle;rounded=0;orthogonalLoop=1;jettySize=auto;html=1;exitX=0.5;exitY=1;exitDx=0;exitDy=0;" edge="1" parent="1" source="hHyLVONSQbWsYgpsv_cf-155" target="hHyLVONSQbWsYgpsv_cf-130">
          <mxGeometry relative="1" as="geometry" />
        </mxCell>
        <mxCell id="hHyLVONSQbWsYgpsv_cf-155" value="Pulse" style="ellipse;whiteSpace=wrap;html=1;fontFamily=Carlito;fontSource=https%3A%2F%2Ffonts.googleapis.com%2Fcss%3Ffamily%3DCarlito;" vertex="1" parent="1">
          <mxGeometry x="832.75" y="-143" width="120" height="50" as="geometry" />
        </mxCell>
        <mxCell id="hHyLVONSQbWsYgpsv_cf-178" style="edgeStyle=orthogonalEdgeStyle;rounded=0;orthogonalLoop=1;jettySize=auto;html=1;exitX=0.5;exitY=1;exitDx=0;exitDy=0;" edge="1" parent="1" source="hHyLVONSQbWsYgpsv_cf-137" target="hHyLVONSQbWsYgpsv_cf-130">
          <mxGeometry relative="1" as="geometry" />
        </mxCell>
        <mxCell id="hHyLVONSQbWsYgpsv_cf-137" value="Reason for Admission" style="ellipse;whiteSpace=wrap;html=1;fontFamily=Carlito;fontSource=https%3A%2F%2Ffonts.googleapis.com%2Fcss%3Ffamily%3DCarlito;" vertex="1" parent="1">
          <mxGeometry x="174.75" y="-143" width="120" height="50" as="geometry" />
        </mxCell>
        <mxCell id="hHyLVONSQbWsYgpsv_cf-180" style="edgeStyle=orthogonalEdgeStyle;rounded=0;orthogonalLoop=1;jettySize=auto;html=1;exitX=0.5;exitY=1;exitDx=0;exitDy=0;" edge="1" parent="1" source="hHyLVONSQbWsYgpsv_cf-139" target="hHyLVONSQbWsYgpsv_cf-130">
          <mxGeometry relative="1" as="geometry" />
        </mxCell>
        <mxCell id="hHyLVONSQbWsYgpsv_cf-139" value="&lt;u&gt;Medical_ID&lt;/u&gt;" style="ellipse;whiteSpace=wrap;html=1;fontFamily=Carlito;fontSource=https%3A%2F%2Ffonts.googleapis.com%2Fcss%3Ffamily%3DCarlito;" vertex="1" parent="1">
          <mxGeometry x="-92.75" y="-143" width="120" height="50" as="geometry" />
        </mxCell>
        <mxCell id="hHyLVONSQbWsYgpsv_cf-177" style="edgeStyle=orthogonalEdgeStyle;rounded=0;orthogonalLoop=1;jettySize=auto;html=1;exitX=0.5;exitY=1;exitDx=0;exitDy=0;" edge="1" parent="1" source="hHyLVONSQbWsYgpsv_cf-164" target="hHyLVONSQbWsYgpsv_cf-130">
          <mxGeometry relative="1" as="geometry" />
        </mxCell>
        <mxCell id="hHyLVONSQbWsYgpsv_cf-164" value="&lt;div&gt;Religion&lt;/div&gt;" style="ellipse;whiteSpace=wrap;html=1;fontStyle=0;fontFamily=Carlito;fontSource=https%3A%2F%2Ffonts.googleapis.com%2Fcss%3Ffamily%3DCarlito;container=0;" vertex="1" parent="1">
          <mxGeometry x="306.25" y="-153" width="127.5" height="60" as="geometry" />
        </mxCell>
        <mxCell id="hHyLVONSQbWsYgpsv_cf-165" value="Diagnosis" style="ellipse;whiteSpace=wrap;html=1;fontStyle=0;fontFamily=Carlito;fontSource=https%3A%2F%2Ffonts.googleapis.com%2Fcss%3Ffamily%3DCarlito;" vertex="1" parent="1">
          <mxGeometry x="310" y="-148" width="120" height="50" as="geometry" />
        </mxCell>
        <mxCell id="hHyLVONSQbWsYgpsv_cf-182" style="edgeStyle=orthogonalEdgeStyle;rounded=0;orthogonalLoop=1;jettySize=auto;html=1;exitX=0.5;exitY=1;exitDx=0;exitDy=0;" edge="1" parent="1" source="hHyLVONSQbWsYgpsv_cf-158" target="hHyLVONSQbWsYgpsv_cf-130">
          <mxGeometry relative="1" as="geometry" />
        </mxCell>
        <mxCell id="hHyLVONSQbWsYgpsv_cf-158" value="&lt;div&gt;Religion&lt;/div&gt;" style="ellipse;whiteSpace=wrap;html=1;fontStyle=0;fontFamily=Carlito;fontSource=https%3A%2F%2Ffonts.googleapis.com%2Fcss%3Ffamily%3DCarlito;" vertex="1" parent="1">
          <mxGeometry x="42.5" y="-153" width="127.5" height="60" as="geometry" />
        </mxCell>
        <mxCell id="hHyLVONSQbWsYgpsv_cf-159" value="Chief Complaint" style="ellipse;whiteSpace=wrap;html=1;fontStyle=0;fontFamily=Carlito;fontSource=https%3A%2F%2Ffonts.googleapis.com%2Fcss%3Ffamily%3DCarlito;" vertex="1" parent="1">
          <mxGeometry x="46.25" y="-148" width="120" height="50" as="geometry" />
        </mxCell>
      </root>
    </mxGraphModel>
  </diagram>
</mxfile>
